# xmcd
#
# Track frame offsets:
#	150
#	22091
#	52781
#	75168
#	95047
#	115483
#	137647
#	155130
#	176068
#	209489
#	230538
#	250919
#	266674
#
# Disc length: 3867 seconds
#
# Revision: 1
# Processed by: cddbd v1.4PL0 Copyright (c) Steve Scherf et al.
# Submitted via: EasyCDDAExtractor 5.0.7
#
DISCID=b40f190d
DTITLE=Paul Geng - inclcsys ARR 4-10-2003 - Mnemosyne
DYEAR=2003
DGENRE=AlternRock
TTITLE0=Hearts Are For Breaking
TTITLE1=Ships That Pass In The Night
TTITLE2=Yore My Miracle
TTITLE3=Work This Thing Out
TTITLE4=Mnemosyne
TTITLE5=Legacy
TTITLE6=How Much I Luv U
TTITLE7=In The Face Of Luv
TTITLE8=Perfect Rose
TTITLE9=Leave Us Alone
TTITLE10=The Troble With Luv
TTITLE11=Life Goes On
TTITLE12=Carry That Weight
EXTD=
EXTT0=
EXTT1=
EXTT2=
EXTT3=
EXTT4=
EXTT5=
EXTT6=
EXTT7=
EXTT8=
EXTT9=
EXTT10=
EXTT11=
EXTT12=
PLAYORDER=
